# AST/ASF file generated using VICON BodyLanguage
# -----------------------------------------------
:version 1.10
:name VICON
:units
  mass 1.0
  length 0.45
  angle deg
:documentation
   .ast/.asf automatically generated from VICON data using
   VICON BodyBuilder and BodyLanguage model FoxedUp or BRILLIANT.MOD
:root
   order TX TY TZ RX RY RZ
   axis XYZ
   position 0 0 0  
   orientation 0 0 0 
:bonedata
  begin
     id 1 
     name lhipjoint
     direction 0.567149 -0.783011 0.255413 
     length 2.28399 
     axis 0 0 0  XYZ
  end
  begin
     id 2 
     name lfemur
     direction 0.34202 -0.939693 0  
     length 7.34031  
     axis 0 0 20  XYZ
    dof rx ry rz
    limits (-160.0 20.0)
           (-70.0 70.0)
           (-60.0 70.0)
  end
  begin
     id 3 
     name ltibia
     direction 0.34202 -0.939693 0   
     length 6.9833   
     axis 0 0 20   XYZ
    dof rx
    limits (-10.0 170.0)
  end
  begin
     id 4 
     name lfoot
     direction 0.136498 -0.375025 0.91691   
     length 2.33665   
     axis -90 7.62852e-016 20   XYZ
    dof rx rz
    limits (-45.0 90.0)
           (-70.0 20.0)
  end
  begin
     id 5 
     name ltoes
     direction 1.5367e-011 -4.21617e-011 1   
     length 1.15039   
     axis -90 7.62852e-016 20   XYZ
    dof rx
    limits (-90.0 20.0)
  end
  begin
     id 6 
     name rhipjoint
     direction -0.602854 -0.758518 0.247423   
     length 2.35775  
     axis 0 0 0  XYZ 
  end
  begin
     id 7 
     name rfemur
     direction -0.34202 -0.939693 0   
     length 7.43932   
     axis 0 0 -20   XYZ
    dof rx ry rz
    limits (-160.0 20.0)
           (-70.0 70.0)
           (-70.0 60.0)
  end
  begin
     id 8 
     name rtibia
     direction -0.34202 -0.939693 0   
     length 7.11893   
     axis 0 0 -20   XYZ
    dof rx
    limits (-10.0 170.0)
 end
 begin
     id 9 
     name rfoot
     direction -0.131771 -0.362037 0.922803   
     length 2.53019  
     axis -90 -7.62852e-016 -20   XYZ
    dof rx rz
    limits (-45.0 90.0)
           (-20.0 70.0)
  end
  begin
     id 10 
     name rtoes
     direction -1.53733e-011 -4.21932e-011 1   
     length 1.24596   
     axis -90 -7.62852e-016 -20   XYZ
    dof rx
    limits (-90.0 20.0)
  end
  begin
     id 11 
     name lowerback
     direction 0.0235427 0.999023 -0.0374125   
     length 2.21768   
     axis 0 0 0   XYZ
    dof rx ry rz
    limits (-20.0 45.0)
           (-30.0 30.0)
           (-30.0 30.0)
  end
  begin
     id 12 
     name upperback
     direction 0.0302156 0.996818 -0.073759   
     length 2.20352   
     axis 0 0 0   XYZ
    dof rx ry rz
    limits (-20.0 45.0)
           (-30.0 30.0)
           (-30.0 30.0)
  end
  begin
     id 13 
     name thorax
     direction 0.0187169 0.998235 -0.0563532   
     length 2.22103   
     axis 0 0 0   XYZ
    dof rx ry rz
    limits (-20.0 45.0)
           (-30.0 30.0)
           (-30.0 30.0)
  end
  begin
     id 14 
     name lowerneck
     direction -0.119528 0.987423 0.103481   
     length 1.72948   
     axis 0 0 0   XYZ
    dof rx ry rz
    limits (-20.0 45.0)
           (-30.0 30.0)
           (-30.0 30.0)
  end
  begin
     id 15 
     name upperneck
     direction 0.248049 0.963095 -0.104496   
     length 1.74979   
     axis 0 0 0   XYZ
    dof rx ry rz
    limits (-20.0 45.0)
           (-30.0 30.0)
           (-30.0 30.0)
  end
  begin
     id 16
     name head
     direction 0.0903589 0.994284 -0.056876  
     length 1.78268  
     axis 0 0 0   XYZ
    dof rx ry rz
    limits (-20.0 45.0)
           (-30.0 30.0)
           (-30.0 30.0)
  end
  begin
     id 17 
     name lclavicle
     direction 0.946008 0.242039 -0.215608  
     length 3.80783  
     axis 0 0 0   XYZ
    dof ry rz
    limits (-20.0 10.0)
           (0.0 20.0)
  end
  begin
     id 18 
     name lhumerus
     direction 1 -4.48991e-011 -2.25695e-027   
     length 4.83125   
     axis 180 -30 -90   XYZ
    dof rx ry rz
    limits (-60.0 90.0)
           (-90.0 90.0)
           (-90.0 90.0)
  end
  begin
     id 19
     name lradius
     direction 0.999991 0.00366712 -0.00211721   
     length 3.00391   
     axis 180 -30 -90   XYZ
    dof rx
    limits (-10.0 170.0)
  end
  begin
     id 20
     name lwrist
     direction 0.999991 0.00393016 -0.00141978   
     length 1.50195   
     axis -1.00488e-014 90 90   XYZ
    dof ry
    limits (-180.0 0.0)
 end
  begin
     id 21 
     name lhand
     direction 1 -4.49123e-011 2.72098e-026   
     length 1.2717   
     axis -1.73687e-014 90 90   XYZ
    dof rx rz
    limits (-90.0 90.0)
           (-45.0 45.0)
  end
  begin
     id 22 
     name lfingers
     direction 1 -4.48678e-011 5.4479e-026   
     length 1.02528   
     axis -3.47372e-014 90 90   XYZ
    dof rx
    limits (0.0 90.0)
  end
  begin
     id 23
     name lthumb
     direction 0.707107 -6.34851e-011 0.707107   
     length 1.4721   
     axis -90 45 -1.62303e-014   XYZ
    dof rx rz
    limits (-45.0 45.0)
           (-45.0 45.0)
  end
  begin
     id 24 
     name rclavicle
     direction -0.981723 0.189447 -0.0181673   
     length 3.74989  
     axis 0 0 0   XYZ 
    dof ry rz
    limits (-10.0 20.0)
           (-20.0 0.0)
  end
  begin
     id 25 
     name rhumerus
     direction -1 -4.48985e-011 2.38206e-027  
     length 4.61118   
     axis 180 30 90   XYZ
    dof rx ry rz
    limits (-90.0 60.0)
           (-90.0 90.0)
           (-90.0 90.0)
  end
  begin
     id 26 
     name rradius
     direction -1 -4.48977e-011 7.41019e-027   
     length 2.91491   
     axis 180 30 90   XYZ
    dof rx
    limits (-10.0 170.0)
  end
  begin
     id 27 
     name rwrist
     direction -1 -4.48549e-011 1.3624e-026   
     length 1.45745   
     axis -1.00488e-014 -90 -90   XYZ
    dof ry
    limits (-180.0 0.0)
  end
  begin
     id 28
     name rhand
     direction -1 -4.49107e-011 2.72109e-026   
     length 1.30769   
     axis -1.73687e-014 -90 -90   XYZ
    dof rx rz
    limits (-90.0 90.0)
           (-45.0 45.0)
  end
  begin
     id 29
     name rfingers
     direction -1 -4.48919e-011 5.44468e-026   
     length 1.05429   
     axis -3.47372e-014 -90 -90   XYZ
    dof rx
    limits (0.0 90.0)
  end
  begin
     id 30
     name rthumb
     direction -0.707107 -6.35315e-011 0.707107   
     length 1.51376   
     axis -90 -45 1.62303e-014   XYZ
    dof rx rz
    limits (-45.0 45.0)
           (-45.0 45.0)
  end
:hierarchy
  begin
    root lhipjoint rhipjoint lowerback
    lhipjoint lfemur
    lfemur ltibia
    ltibia lfoot
    lfoot ltoes
    rhipjoint rfemur
    rfemur rtibia
    rtibia rfoot
    rfoot rtoes
    lowerback upperback
    upperback thorax
    thorax lowerneck lclavicle rclavicle
    lowerneck upperneck
    upperneck head
    lclavicle lhumerus
    lhumerus lradius
    lradius lwrist
    lwrist lhand lthumb
    lhand lfingers
    rclavicle rhumerus
    rhumerus rradius
    rradius rwrist
    rwrist rhand rthumb
    rhand rfingers
  end

#!OML:ASF X:\für Bonn\!DataBase\2005_08_11_Bastian_Final\c3d\Bastian.ASF
:FULLY-SPECIFIED
:DEGREES
1
root -28.8475 16.8888 24.9348 357.42 -218.955 5.52804
lowerback 8.54609 -2.23922 -0.211952
upperback 8.61529 -2.32239 0.659572
thorax 4.21522 -0.903941 0.932511
lowerneck -4.14633 -7.37371 -4.09316
upperneck 1.46933 -9.90831 14.4699
head 2.07515 -4.59059 4.65079
rclavicle 5.11871e-014 -8.74653e-015
rhumerus -37.5038 2.68984 -89.5901
rradius 33.6309
rwrist -11.0592
rhand -18.4962 4.2312
rfingers 7.12502
rthumb 7.79139 -25.6052
lclavicle 5.11871e-014 -8.74653e-015
lhumerus -29.5408 -14.3106 88.1267
lradius 27.609
lwrist 50.4153
lhand -16.279 -9.57684
lfingers 7.12502
lthumb 9.93102 20.1689
rfemur -19.7908 -17.17 25.374
rtibia 51.0991
rfoot -16.1963 -7.7022
rtoes 25.466
lfemur 6.65092 6.9552 -13.634
ltibia 31.5523
lfoot -25.7298 -2.27433
ltoes -8.72133
2
root -28.8096 16.8826 24.9022 357.5 -219.307 5.55883
lowerback 8.39668 -2.34478 -0.287459
upperback 8.61977 -2.47566 0.691914
thorax 4.3109 -0.989039 1.00993
lowerneck -4.45835 -7.23391 -4.0198
upperneck 1.57011 -9.73014 14.2581
head 2.12461 -4.49243 4.57237
rclavicle 9.10434e-014 -6.75868e-015
rhumerus -37.6548 2.29969 -89.3667
rradius 33.2222
rwrist -11.2008
rhand -18.4212 4.16945
rfingers 7.12502
rthumb 7.86379 -25.6643
lclavicle 9.10434e-014 -6.75868e-015
lhumerus -28.9314 -14.5291 88.0901
lradius 28.0326
lwrist 50.4656
lhand -16.0725 -9.47024
lfingers 7.12502
lthumb 10.1302 20.2659
rfemur -19.7885 -17.3789 25.4196
rtibia 50.9676
rfoot -16.4135 -7.83786
rtoes 25.8353
lfemur 6.95613 7.04795 -13.608
ltibia 31.3456
lfoot -25.8964 -2.10662
ltoes -8.60194
3
root -28.7711 16.8771 24.8695 357.577 -219.663 5.59028
lowerback 8.26845 -2.45544 -0.353515
upperback 8.60973 -2.63615 0.721204
thorax 4.37962 -1.07764 1.0794
lowerneck -4.76372 -7.0972 -3.9256
upperneck 1.69087 -9.5587 14.0076
head 2.17682 -4.39866 4.47894
rclavicle 1.08238e-013 -4.33351e-014
rhumerus -37.8659 2.00931 -89.1755
rradius 32.8661
rwrist -11.3631
rhand -18.347 4.04577
rfingers 7.12502
rthumb 7.93548 -25.7853
lclavicle 1.08238e-013 -4.33351e-014
lhumerus -28.3223 -14.6222 88.0325
lradius 28.4356
lwrist 50.4092
lhand -15.8094 -9.46792
lfingers 7.12502
lthumb 10.384 20.2557
rfemur -19.7666 -17.5079 25.4662
rtibia 50.8345
rfoot -16.5513 -7.95674
rtoes 26.2327
lfemur 7.26574 7.15378 -13.5855
ltibia 31.1464
lfoot -26.0636 -1.88224
ltoes -8.79432
4
root -28.7319 16.8717 24.8374 357.673 -220.054 5.64631
lowerback 8.1816 -2.53852 -0.378386
upperback 8.57288 -2.75953 0.749382
thorax 4.39415 -1.14606 1.12461
lowerneck -5.04134 -6.96642 -3.88569
upperneck 1.80934 -9.39344 13.8216
head 2.23093 -4.30785 4.41462
rclavicle -9.03476e-014 2.62396e-014
rhumerus -38.1113 1.62872 -88.9302
rradius 32.5019
rwrist -11.4772
rhand -18.2618 3.93352
rfingers 7.12502
rthumb 8.01764 -25.8944
lclavicle -9.03476e-014 2.62396e-014
lhumerus -27.753 -14.6492 87.9866
lradius 28.8489
lwrist 50.2924
lhand -15.4943 -9.58958
lfingers 7.12502
lthumb 10.688 20.1186
rfemur -19.7396 -17.5384 25.5421
rtibia 50.703
rfoot -16.5959 -8.04131
rtoes 26.5614
lfemur 7.58926 7.097 -13.6207
ltibia 30.9617
lfoot -26.2981 -1.4858
ltoes -8.85944
5
root -28.6938 16.8653 24.8057 357.744 -220.462 5.65607
lowerback 8.12478 -2.6126 -0.433787
upperback 8.52616 -2.87245 0.779436
thorax 4.3834 -1.21097 1.18942
lowerneck -5.34358 -6.85009 -3.89159
upperneck 1.94585 -9.24775 13.6463
head 2.29925 -4.22592 4.35903
rclavicle 4.35338e-014 -3.49861e-014
rhumerus -38.312 1.14348 -88.6099
rradius 32.0787
rwrist -11.454
rhand -18.1435 3.81754
rfingers 7.12502
rthumb 8.1318 -26.006
lclavicle 4.35338e-014 -3.49861e-014
lhumerus -27.1655 -14.5784 87.9629
lradius 29.2458
lwrist 50.0973
lhand -15.2051 -9.82769
lfingers 7.12502
lthumb 10.9669 19.8659
rfemur -19.7132 -17.5226 25.5847
rtibia 50.577
rfoot -16.5805 -8.09603
rtoes 26.7362
lfemur 7.87129 7.07879 -13.6933
ltibia 30.8143
lfoot -26.5139 -1.06333
ltoes -9.13017
